<svg width="35" height="34" viewBox="0 0 35 34" fill="none" xmlns="http://www.w3.org/2000/svg">
<path d="M25.6289 0.535645H8.54557C3.42057 0.535645 0.00390625 3.95231 0.00390625 9.07731V19.3273C0.00390625 24.4523 3.42057 27.869 8.54557 27.869H15.3789L22.981 32.9256C24.1085 33.6773 25.6289 32.8744 25.6289 31.5077V27.869C30.7539 27.869 34.1706 24.4523 34.1706 19.3273V9.07731C34.1706 3.95231 30.7539 0.535645 25.6289 0.535645ZM23.0664 15.6031H11.1081C10.4077 15.6031 9.82682 15.0223 9.82682 14.3219C9.82682 13.6215 10.4077 13.0406 11.1081 13.0406H23.0664C23.7668 13.0406 24.3477 13.6215 24.3477 14.3219C24.3477 15.0223 23.7668 15.6031 23.0664 15.6031Z" fill="#292D32"/>
</svg>
