<svg width="42" height="41" viewBox="0 0 42 41" fill="none" xmlns="http://www.w3.org/2000/svg">
<path d="M28.9493 15.375H22.0306V26.0521C22.0306 26.7525 21.4498 27.3333 20.7493 27.3333C20.0489 27.3333 19.4681 26.7525 19.4681 26.0521V15.375H12.5493C7.08268 15.375 3.66602 18.7917 3.66602 24.2583V28.6829C3.66602 34.1667 7.08268 37.5833 12.5493 37.5833H28.9323C34.3989 37.5833 37.8156 34.1667 37.8156 28.7V24.2583C37.8327 18.7917 34.416 15.375 28.9493 15.375Z" fill="#292D32"/>
<path d="M22.0311 7.78947L25.5674 11.3257C25.8236 11.582 26.1482 11.7016 26.4728 11.7016C26.7974 11.7016 27.122 11.582 27.3782 11.3257C27.8736 10.8303 27.8736 10.0103 27.3782 9.51489L21.6553 3.79197C21.1599 3.29656 20.3399 3.29656 19.8445 3.79197L14.1216 9.51489C13.6261 10.0103 13.6261 10.8303 14.1216 11.3257C14.617 11.8211 15.437 11.8211 15.9324 11.3257L19.4686 7.78947V15.3745H22.0311V7.78947Z" fill="#292D32"/>
</svg>
