<svg width="25" height="4" viewBox="0 0 25 4" fill="none" xmlns="http://www.w3.org/2000/svg">
<path d="M1.48011 3.10227C1.16477 3.10227 0.894176 2.98935 0.668324 2.76349C0.442472 2.53764 0.329546 2.26705 0.329546 1.9517C0.329546 1.63636 0.442472 1.36577 0.668324 1.13991C0.894176 0.914062 1.16477 0.801136 1.48011 0.801136C1.79545 0.801136 2.06605 0.914062 2.2919 1.13991C2.51776 1.36577 2.63068 1.63636 2.63068 1.9517C2.63068 2.16051 2.57741 2.35227 2.47088 2.52699C2.36861 2.7017 2.23011 2.84233 2.0554 2.94886C1.88494 3.05114 1.69318 3.10227 1.48011 3.10227ZM12.3996 3.10227C12.0843 3.10227 11.8137 2.98935 11.5879 2.76349C11.362 2.53764 11.2491 2.26705 11.2491 1.9517C11.2491 1.63636 11.362 1.36577 11.5879 1.13991C11.8137 0.914062 12.0843 0.801136 12.3996 0.801136C12.715 0.801136 12.9856 0.914062 13.2114 1.13991C13.4373 1.36577 13.5502 1.63636 13.5502 1.9517C13.5502 2.16051 13.4969 2.35227 13.3904 2.52699C13.2881 2.7017 13.1496 2.84233 12.9749 2.94886C12.8045 3.05114 12.6127 3.10227 12.3996 3.10227ZM23.3192 3.10227C23.0038 3.10227 22.7332 2.98935 22.5074 2.76349C22.2815 2.53764 22.1686 2.26705 22.1686 1.9517C22.1686 1.63636 22.2815 1.36577 22.5074 1.13991C22.7332 0.914062 23.0038 0.801136 23.3192 0.801136C23.6345 0.801136 23.9051 0.914062 24.131 1.13991C24.3568 1.36577 24.4697 1.63636 24.4697 1.9517C24.4697 2.16051 24.4165 2.35227 24.3099 2.52699C24.2077 2.7017 24.0692 2.84233 23.8945 2.94886C23.724 3.05114 23.5322 3.10227 23.3192 3.10227Z" fill="black"/>
</svg>
