<svg width="24" height="23" viewBox="0 0 24 23" fill="none" xmlns="http://www.w3.org/2000/svg">
<path d="M21.15 5.81828C20.74 5.61532 19.88 5.40314 18.71 6.15961L17.24 7.11903C17.13 4.24999 15.78 3.12451 12.5 3.12451H6.5C3.08 3.12451 1.75 4.35147 1.75 7.50649V14.8867C1.75 17.0085 3 19.2687 6.5 19.2687H12.5C15.78 19.2687 17.13 18.1432 17.24 15.2741L18.71 16.2336C19.33 16.6395 19.87 16.7686 20.3 16.7686C20.67 16.7686 20.96 16.6671 21.15 16.5749C21.56 16.3812 22.25 15.8553 22.25 14.5361V7.85705C22.25 6.53785 21.56 6.01201 21.15 5.81828ZM11 10.6246C9.97 10.6246 9.12 9.8497 9.12 8.89028C9.12 7.93085 9.97 7.15594 11 7.15594C12.03 7.15594 12.88 7.93085 12.88 8.89028C12.88 9.8497 12.03 10.6246 11 10.6246Z" fill="#292D32"/>
</svg>
