<svg width="24" height="23" viewBox="0 0 24 23" fill="none" xmlns="http://www.w3.org/2000/svg">
<path d="M14.7295 5.63125V2.53157C14.7295 2.27327 14.5095 2.07031 14.2295 2.07031H9.76953C9.48953 2.07031 9.26953 2.27327 9.26953 2.53157V5.63125C9.26953 5.88956 9.48953 6.09251 9.76953 6.09251H14.2295C14.5095 6.09251 14.7295 5.88956 14.7295 5.63125Z" fill="#292D32"/>
<path d="M7.25047 2.08897C4.69047 2.23657 2.94047 3.4543 2.29047 5.48385C2.19047 5.78828 2.43047 6.09271 2.77047 6.09271H7.27047C7.55047 6.09271 7.77047 5.88976 7.77047 5.63145V2.55023C7.77047 2.29192 7.53047 2.07052 7.25047 2.08897Z" fill="#292D32"/>
<path d="M16.7505 2.07969C19.3105 2.22729 21.0605 3.44502 21.7105 5.47457C21.8105 5.779 21.5705 6.08344 21.2305 6.08344H16.7305C16.4505 6.08344 16.2305 5.88048 16.2305 5.62218V2.54095C16.2305 2.28264 16.4705 2.06124 16.7505 2.07969Z" fill="#292D32"/>
<path d="M22 14.7089C22 14.6997 21.99 14.6905 21.98 14.6812C21.94 14.6259 21.89 14.5705 21.84 14.5244C21.83 14.5152 21.82 14.4967 21.81 14.4875C21 13.6572 19.81 13.1406 18.5 13.1406C17.24 13.1406 16.09 13.6203 15.27 14.3953C14.48 15.1425 14 16.1665 14 17.292C14 18.0669 14.24 18.8049 14.65 19.4322C14.87 19.7736 15.15 20.0872 15.47 20.3455C15.49 20.3548 15.5 20.364 15.51 20.3732C15.56 20.4193 15.61 20.4562 15.67 20.5024C15.67 20.5024 15.67 20.5024 15.68 20.5024C15.69 20.5116 15.7 20.5208 15.71 20.5208C16.46 21.102 17.43 21.4433 18.5 21.4433C20.14 21.4433 21.57 20.6315 22.35 19.4322C22.58 19.0724 22.76 18.6758 22.87 18.2606C22.96 17.947 23 17.6241 23 17.292C23 16.3141 22.63 15.41 22 14.7089ZM20.18 17.9654H19.25V18.8603C19.25 19.2385 18.91 19.5522 18.5 19.5522C18.09 19.5522 17.75 19.2385 17.75 18.8603V17.9654H16.82C16.41 17.9654 16.07 17.6518 16.07 17.2735C16.07 16.8953 16.41 16.5816 16.82 16.5816H17.75V15.7606C17.75 15.3824 18.09 15.0687 18.5 15.0687C18.91 15.0687 19.25 15.3824 19.25 15.7606V16.5816H20.18C20.59 16.5816 20.93 16.8953 20.93 17.2735C20.93 17.6518 20.6 17.9654 20.18 17.9654Z" fill="#292D32"/>
<path d="M22 7.93734V11.978C22 12.3193 21.61 12.5407 21.28 12.3839C20.44 11.978 19.48 11.7566 18.5 11.7566C16.89 11.7566 15.32 12.3654 14.2 13.4263C13.1 14.4596 12.5 15.8341 12.5 17.2917C12.5 18.039 12.82 18.9984 13.22 19.801C13.38 20.1239 13.14 20.5205 12.75 20.5205H7.81C4.6 20.5205 2 18.122 2 15.1607V7.93734C2 7.67903 2.22 7.47607 2.5 7.47607H21.5C21.78 7.47607 22 7.67903 22 7.93734Z" fill="#292D32"/>
</svg>
