<svg width="24" height="23" viewBox="0 0 24 23" fill="none" xmlns="http://www.w3.org/2000/svg">
<path d="M21.98 14.7058C21.16 13.774 19.91 13.1836 18.5 13.1836C17.44 13.1836 16.46 13.5249 15.69 14.0969C14.65 14.8534 14 16.025 14 17.3349C14 18.6357 14.64 19.7889 15.65 20.5453C16.42 21.1357 17.42 21.4863 18.5 21.4863C19.64 21.4863 20.67 21.0896 21.47 20.4531C22.4 19.6874 23 18.5804 23 17.3349C23 16.3386 22.62 15.4161 21.98 14.7058ZM19.53 17.5933C19.53 17.8331 19.39 18.0637 19.17 18.1837L17.76 18.9586C17.64 19.0232 17.51 19.0601 17.37 19.0601C17.12 19.0601 16.87 18.9401 16.73 18.728C16.52 18.3958 16.63 17.9715 16.99 17.7778L18.03 17.2058V16.0434C18.03 15.6652 18.37 15.3515 18.78 15.3515C19.19 15.3515 19.53 15.6652 19.53 16.0434V17.5933Z" fill="#292D32"/>
<path d="M14.7295 5.67422V2.57454C14.7295 2.31624 14.5095 2.11328 14.2295 2.11328H9.76953C9.48953 2.11328 9.26953 2.31624 9.26953 2.57454V5.67422C9.26953 5.93252 9.48953 6.13548 9.76953 6.13548H14.2295C14.5095 6.13548 14.7295 5.93252 14.7295 5.67422Z" fill="#292D32"/>
<path d="M7.25047 2.13194C4.69047 2.27954 2.94047 3.49727 2.29047 5.52682C2.19047 5.83125 2.43047 6.13568 2.77047 6.13568H7.27047C7.55047 6.13568 7.77047 5.93273 7.77047 5.67442V2.5932C7.77047 2.33489 7.53047 2.11349 7.25047 2.13194Z" fill="#292D32"/>
<path d="M16.7505 2.12266C19.3105 2.27026 21.0605 3.48799 21.7105 5.51754C21.8105 5.82197 21.5705 6.12641 21.2305 6.12641H16.7305C16.4505 6.12641 16.2305 5.92345 16.2305 5.66514V2.58392C16.2305 2.32561 16.4705 2.10421 16.7505 2.12266Z" fill="#292D32"/>
<path d="M22 7.98079V12.0214C22 12.3628 21.61 12.5842 21.28 12.4274C20.44 12.0214 19.48 11.8 18.5 11.8C16.89 11.8 15.32 12.4089 14.2 13.4698C13.1 14.503 12.5 15.8776 12.5 17.3352C12.5 18.0824 12.82 19.0418 13.22 19.8444C13.38 20.1673 13.14 20.564 12.75 20.564H7.81C4.6 20.564 2 18.1654 2 15.2041V7.98079C2 7.72249 2.22 7.51953 2.5 7.51953H21.5C21.78 7.51953 22 7.72249 22 7.98079Z" fill="#292D32"/>
</svg>
